<svg width="1269" height="910" viewBox="0 0 1269 910" fill="none" xmlns="http://www.w3.org/2000/svg">
<path d="M67.9999 663L101.775 721.5H34.2249L67.9999 663Z" fill="#D9D9D9" fill-opacity="0.4"/>
<path d="M1020.19 424.788L1046.35 450.055L1011.39 460.081L1020.19 424.788Z" fill="#D9D9D9" fill-opacity="0.4"/>
<path d="M353.515 318.918L367.063 404.455L286.212 373.419L353.515 318.918Z" fill="#D9D9D9" fill-opacity="0.4"/>
<path d="M842.349 783.227L866.443 879.862L770.708 852.411L842.349 783.227Z" fill="#D9D9D9" fill-opacity="0.4"/>
<path d="M769 0L785.454 28.5H752.545L769 0Z" fill="#D9D9D9" fill-opacity="0.4"/>
<path d="M1178.4 684.556L1252.5 753.66L1155.6 783.284L1178.4 684.556Z" fill="#D9D9D9" fill-opacity="0.4"/>
<circle cx="393.499" cy="83.5" r="19.5" fill="#D9D9D9" fill-opacity="0.4"/>
<circle cx="641.999" cy="156" r="40" fill="#D9D9D9" fill-opacity="0.4"/>
<circle cx="400.5" cy="716.5" r="24.5" fill="#D9D9D9" fill-opacity="0.4"/>
<circle cx="89.5" cy="281.5" r="34.5" fill="#D9D9D9" fill-opacity="0.4"/>
<circle cx="647.5" cy="805.5" r="13.5" fill="#D9D9D9" fill-opacity="0.4"/>
<circle cx="200" cy="825" r="44" fill="#D9D9D9" fill-opacity="0.4"/>
<rect x="582.767" y="16.1396" width="50" height="50" transform="rotate(83 582.767 16.1396)" fill="#D9D9D9" fill-opacity="0.4"/>
<rect x="48" y="511.027" width="105" height="105" transform="rotate(-23 48 511.027)" fill="#D9D9D9" fill-opacity="0.4"/>
<rect x="1178" y="444" width="56" height="56" fill="#D9D9D9" fill-opacity="0.4"/>
<rect x="57" width="114" height="114" transform="rotate(30 57 0)" fill="#D9D9D9" fill-opacity="0.4"/>
<rect x="913.049" y="574" width="44" height="44" transform="rotate(20 913.049 574)" fill="#D9D9D9" fill-opacity="0.4"/>
<rect x="1166.95" y="72" width="57" height="57" transform="rotate(79 1166.95 72)" fill="#D9D9D9" fill-opacity="0.4"/>
<circle cx="992.5" cy="246.5" r="33.5" fill="#D9D9D9" fill-opacity="0.4"/>
<circle cx="1060" cy="663" r="11" fill="#D9D9D9" fill-opacity="0.4"/>
<circle cx="623.5" cy="469.5" r="18.5" fill="#D9D9D9"/>
<rect x="677.907" y="306.055" width="44" height="44" transform="rotate(-12 677.907 306.055)" fill="#D9D9D9"/>
<path d="M535.275 317.005L564.41 344.174L526.314 355.821L535.275 317.005Z" fill="#D9D9D9"/>
<path d="M728.841 580.206L723.042 663.142L654.117 616.652L728.841 580.206Z" fill="#D9D9D9"/>
<rect x="431.891" y="513.519" width="55" height="55" transform="rotate(13 431.891 513.519)" fill="#D9D9D9"/>
</svg>
